<svg width="26" height="26" viewBox="0 0 26 26" fill="none" xmlns="http://www.w3.org/2000/svg">
<g clip-path="url(#clip0_734_1747)">
<path fill-rule="evenodd" clip-rule="evenodd" d="M16.2501 20.5832C16.2503 21.1298 16.0438 21.6563 15.6721 22.0571C15.3004 22.4579 14.791 22.7034 14.2459 22.7444L14.0834 22.7498H11.9167C11.3701 22.75 10.8436 22.5436 10.4428 22.1719C10.042 21.8002 9.79649 21.2908 9.7555 20.7457L9.75008 20.5832H16.2501ZM13.0001 2.1665C14.9663 2.16647 16.8557 2.93014 18.2697 4.29642C19.6836 5.6627 20.5117 7.52477 20.5791 9.48984L20.5834 9.74984V13.8275L22.5572 17.7752C22.6434 17.9474 22.6865 18.138 22.6829 18.3305C22.6793 18.5231 22.629 18.7119 22.5365 18.8808C22.444 19.0497 22.3119 19.1936 22.1515 19.3003C21.9912 19.407 21.8074 19.4732 21.6158 19.4933L21.4912 19.4998H4.50891C4.31626 19.4999 4.12646 19.4532 3.95579 19.3639C3.78511 19.2745 3.63865 19.1451 3.52895 18.9867C3.41925 18.8283 3.34958 18.6457 3.32592 18.4545C3.30225 18.2633 3.3253 18.0693 3.39308 17.8889L3.44291 17.7752L5.41675 13.8275V9.74984C5.41675 7.73861 6.2157 5.80976 7.63785 4.38761C9.06 2.96546 10.9889 2.1665 13.0001 2.1665ZM13.0001 4.33317C11.6042 4.33325 10.2623 4.87217 9.25415 5.83755C8.24599 6.80293 7.64941 8.12023 7.58883 9.51475L7.58341 9.74984V13.8275C7.58342 14.0962 7.53346 14.3625 7.43608 14.6129L7.35483 14.7971L6.08733 17.3332H19.9139L18.6464 14.796C18.5262 14.5558 18.4516 14.2954 18.4265 14.0279L18.4167 13.8275V9.74984C18.4167 8.31325 17.8461 6.9355 16.8302 5.91968C15.8144 4.90385 14.4367 4.33317 13.0001 4.33317Z" fill="#2B2D42"/>
</g>
<defs>
<clipPath id="clip0_734_1747">
<rect width="26" height="26" fill="white"/>
</clipPath>
</defs>
</svg>
