<svg width="26" height="26" viewBox="0 0 26 26" fill="none" xmlns="http://www.w3.org/2000/svg">
<path d="M4.33301 19.5C4.33301 18.3507 4.78955 17.2485 5.60221 16.4358C6.41487 15.6232 7.51707 15.1666 8.66634 15.1666H17.333C18.4823 15.1666 19.5845 15.6232 20.3971 16.4358C21.2098 17.2485 21.6663 18.3507 21.6663 19.5C21.6663 20.0746 21.4381 20.6257 21.0317 21.032C20.6254 21.4384 20.0743 21.6666 19.4997 21.6666H6.49967C5.92504 21.6666 5.37394 21.4384 4.96761 21.032C4.56128 20.6257 4.33301 20.0746 4.33301 19.5Z" stroke="#00072D" stroke-width="2" stroke-linejoin="round"/>
<path d="M13 10.8333C14.7949 10.8333 16.25 9.37824 16.25 7.58331C16.25 5.78839 14.7949 4.33331 13 4.33331C11.2051 4.33331 9.75 5.78839 9.75 7.58331C9.75 9.37824 11.2051 10.8333 13 10.8333Z" stroke="#00072D" stroke-width="2"/>
</svg>
