<svg width="21" height="22" viewBox="0 0 21 22" fill="none" xmlns="http://www.w3.org/2000/svg">
<path d="M2.80087 3.11977C4.37842 1.54426 6.49693 0.628919 8.72541 0.55996C10.9539 0.491002 13.1249 1.27361 14.7969 2.74856C16.4688 4.22352 17.5161 6.28003 17.7256 8.49972C17.9322 10.6893 17.3083 12.8755 15.9797 14.6254L20.5616 19.2062L20.4909 19.2769L20.5616 19.2062C20.6715 19.3162 20.7587 19.4467 20.8182 19.5903C20.8777 19.734 20.9083 19.8879 20.9083 20.0434C20.9083 20.1989 20.8777 20.3528 20.8182 20.4965C20.7587 20.6401 20.6715 20.7706 20.5616 20.8806C20.4516 20.9905 20.3211 21.0777 20.1775 21.1372C20.0338 21.1967 19.8799 21.2273 19.7244 21.2273C19.5689 21.2273 19.415 21.1967 19.2713 21.1372C19.1277 21.0777 18.9972 20.9905 18.8872 20.8806L18.958 20.8099L18.8872 20.8806L14.306 16.2983C12.5564 17.6305 10.3687 18.2572 8.177 18.0517C5.95545 17.8434 3.89691 16.7959 2.42087 15.1226C0.944839 13.4492 0.162401 11.2761 0.233008 9.04588C0.303614 6.8157 1.22194 4.69637 2.80087 3.11977ZM2.80087 3.11977L2.87153 3.19053L2.80087 3.11977ZM13.5264 4.79473C14.1286 5.38724 14.6076 6.09313 14.9357 6.87167C15.2638 7.65022 15.4344 8.48602 15.4379 9.33086C15.4413 10.1757 15.2774 11.0129 14.9557 11.794C14.634 12.5752 14.1608 13.285 13.5634 13.8824C12.966 14.4798 12.2562 14.953 11.4751 15.2747C10.6939 15.5964 9.8567 15.7603 9.01186 15.7569C8.16702 15.7534 7.33123 15.5827 6.55268 15.2547C5.77413 14.9266 5.06825 14.4476 4.47574 13.8454C3.29165 12.6419 2.6311 11.0192 2.63798 9.33086C2.64485 7.64251 3.31859 6.02528 4.51244 4.83143C5.70629 3.63758 7.32352 2.96384 9.01186 2.95697C10.7002 2.95009 12.3229 3.61064 13.5264 4.79473Z" fill="#00072D" stroke="#00072D" stroke-width="0.2"/>
</svg>
