<svg width="102" height="103" viewBox="0 0 102 103" fill="none" xmlns="http://www.w3.org/2000/svg">
<g clip-path="url(#clip0_447_478)">
<path d="M2.17675 50.8836C2.17436 59.5376 4.43111 67.9876 8.72228 75.4355L1.76636 100.883L27.7572 94.0546C34.946 97.9758 43.0004 100.03 51.1854 100.031H51.2069C78.2269 100.031 100.222 78.0005 100.233 50.9223C100.239 37.801 95.1434 25.4626 85.8861 16.1798C76.6304 6.8978 64.3206 1.78333 51.2049 1.77734C24.1817 1.77734 2.1883 23.8066 2.17715 50.8836" fill="url(#paint0_linear_447_478)"/>
<path d="M0.426328 50.8676C0.423539 59.833 2.76117 68.5852 7.20534 76.2998L0 102.659L26.9228 95.5864C34.3409 99.6389 42.693 101.776 51.1917 101.779H51.2136C79.203 101.779 101.988 78.9559 102 50.9083C102.005 37.3155 96.7263 24.5336 87.1383 14.9182C77.5491 5.3041 64.7991 0.00558915 51.2136 0C23.2193 0 0.437484 22.8197 0.426328 50.8676ZM16.4595 74.9712L15.4542 73.3723C11.2284 66.6398 8.99791 58.8597 9.0011 50.8708C9.01027 27.5581 27.9456 8.59132 51.2295 8.59132C62.5053 8.59611 73.1021 13.0004 81.0725 20.9912C89.0424 28.9829 93.428 39.6063 93.4252 50.9052C93.4149 74.2179 74.4791 93.1871 51.2136 93.1871H51.1968C43.6213 93.1831 36.1917 91.1446 29.7123 87.2925L28.1703 86.3763L12.1938 90.5733L16.4595 74.9708V74.9712Z" fill="url(#paint1_linear_447_478)"/>
<path d="M38.52 29.6018C37.5694 27.4847 36.5689 27.442 35.6648 27.4048C34.9245 27.3729 34.0783 27.3753 33.2328 27.3753C32.3865 27.3753 31.0115 27.6943 29.8493 28.9658C28.6858 30.2385 25.4075 33.3142 25.4075 39.5696C25.4075 45.8255 29.9548 51.8709 30.5888 52.7201C31.2235 53.5676 39.3675 66.8155 52.2657 71.912C62.9853 76.1474 65.1668 75.305 67.4932 75.0926C69.8201 74.881 75.0014 72.0178 76.0584 69.0488C77.1163 66.0801 77.1163 63.5355 76.7991 63.0037C76.482 62.4739 75.6357 62.1558 74.3667 61.5202C73.0972 60.8842 66.8585 57.8082 65.6955 57.3838C64.532 56.9598 63.6862 56.7483 62.8399 58.0214C61.9936 59.2925 59.5635 62.1558 58.8228 63.0037C58.0829 63.8537 57.3422 63.9594 56.0736 63.3235C54.8038 62.6855 50.717 61.3445 45.8684 57.0133C42.096 53.6431 39.5492 49.4812 38.8089 48.208C38.0686 46.9369 38.7296 46.2478 39.3659 45.6143C39.9361 45.0446 40.6354 44.1296 41.2705 43.3874C41.9032 42.6448 42.1144 42.1151 42.5375 41.2671C42.961 40.4184 42.7491 39.6758 42.4323 39.0398C42.1144 38.4039 39.6484 32.1157 38.52 29.6018Z" fill="white"/>
</g>
<defs>
<linearGradient id="paint0_linear_447_478" x1="4925.12" y1="9912.33" x2="4925.12" y2="1.77734" gradientUnits="userSpaceOnUse">
<stop stop-color="#1FAF38"/>
<stop offset="1" stop-color="#60D669"/>
</linearGradient>
<linearGradient id="paint1_linear_447_478" x1="5100" y1="10265.9" x2="5100" y2="0" gradientUnits="userSpaceOnUse">
<stop stop-color="#F9F9F9"/>
<stop offset="1" stop-color="white"/>
</linearGradient>
<clipPath id="clip0_447_478">
<rect width="102" height="103" fill="white"/>
</clipPath>
</defs>
</svg>
